<svg xmlns="http://www.w3.org/2000/svg" viewBox="0 0 512 512">
    <defs>
        <filter id="glow" x="-20%" y="-20%" width="140%" height="140%">
            <feGaussianBlur stdDeviation="15" result="blur"/>
            <feComposite in="SourceGraphic" in2="blur" operator="over"/>
        </filter>
    </defs>
    <path fill="#00f3ff" filter="url(#glow)" d="M256 0c-4.6 0-9.2 1-13.4 2.9L45.9 85.5c-17 7-29.9 24.8-29.9 44.7 0 226.2 200.9 368.2 230.5 380.7 3.3 1.4 6.3 2.1 9.5 2.1s6.2-.7 9.5-2.1c29.6-12.5 230.5-154.5 230.5-380.7 0-19.9-12.9-37.7-29.9-44.7L269.4 2.9C265.2 1 260.6 0 256 0z"/>
    <path fill="#1a1d29" d="M256 64c-3.5 0-7.1.8-10.3 2.3l-148.3 64c-13.1 5.5-23.1 19.2-23.1 34.7 0 175.2 155.6 285.2 178.5 294.8 2.6 1.1 4.9 1.6 7.4 1.6s4.8-.5 7.4-1.6c22.9-9.6 178.5-119.6 178.5-294.8 0-15.4-10-29.2-23.1-34.7l-148.3-64c-3.2-1.5-6.8-2.3-10.3-2.3z"/>
    <path fill="#00f3ff" d="M256 110c-2.4 0-4.8.5-7 1.5l-100 43c-8.8 3.7-15.6 12.9-15.6 23.4 0 118.2 105 192.4 120.4 198.9 1.7.7 3.3 1.1 5 1.1s3.3-.4 5-1.1c15.4-6.5 120.4-80.7 120.4-198.9 0-10.4-6.8-19.7-15.6-23.4l-100-43c-2.2-1-4.6-1.5-7-1.5z"/>
</svg>
